# xmcd
#
# Track frame offsets:
#	150
#	11501
#	24217
#	38644
#	51108
#	74293
#	91664
#	104958
#	119333
#	133070
#	147966
#	163284
#
# Disc length: 2400 seconds
# Revision: 0
# Processed by: cddbd v1.5.2PL0 Copyright (c) Steve Scherf et al.
# Submitted via: dBpowerAMP V12.0
#
DISCID=a2095e0c
DTITLE=American Drive - American Drive
DYEAR=2012
DGENRE=Country
TTITLE0=Long Haul Trucking Man
TTITLE1=Willow Creek Dam
TTITLE2=War is Hell
TTITLE3=Is It Too Late To Settle Down
TTITLE4=From Where I Stand
TTITLE5=Son of a Miner
TTITLE6=Some Broken Hearts Never Mend
TTITLE7=Resting Place
TTITLE8=Just a Stones Throw Away
TTITLE9=Cowboys Still Act Like Cowboys
TTITLE10=Nobody's Child
TTITLE11=Gotta Travel On
EXTD=
EXTT0=
EXTT1=
EXTT2=
EXTT3=
EXTT4=
EXTT5=
EXTT6=
EXTT7=
EXTT8=
EXTT9=
EXTT10=
EXTT11=
PLAYORDER=
